<mxfile host="Electron" agent="Mozilla/5.0 (Windows NT 10.0; Win64; x64) AppleWebKit/537.36 (KHTML, like Gecko) draw.io/24.7.17 Chrome/128.0.6613.36 Electron/32.0.1 Safari/537.36" version="24.7.17">
  <diagram name="Pagina-1" id="EOOPCCJ3OFN7ebAPbktB">
    <mxGraphModel dx="1098" dy="988" grid="1" gridSize="10" guides="1" tooltips="1" connect="1" arrows="1" fold="1" page="1" pageScale="1" pageWidth="827" pageHeight="1169" math="0" shadow="0">
      <root>
        <mxCell id="0" />
        <mxCell id="1" parent="0" />
        <mxCell id="kf6Z-MlF4UlDV9ZR81g8-12" style="edgeStyle=orthogonalEdgeStyle;rounded=0;orthogonalLoop=1;jettySize=auto;html=1;" parent="1" source="kf6Z-MlF4UlDV9ZR81g8-1" target="kf6Z-MlF4UlDV9ZR81g8-11" edge="1">
          <mxGeometry relative="1" as="geometry" />
        </mxCell>
        <mxCell id="kf6Z-MlF4UlDV9ZR81g8-13" style="edgeStyle=orthogonalEdgeStyle;rounded=0;orthogonalLoop=1;jettySize=auto;html=1;entryX=0.5;entryY=0;entryDx=0;entryDy=0;" parent="1" source="kf6Z-MlF4UlDV9ZR81g8-1" target="kf6Z-MlF4UlDV9ZR81g8-10" edge="1">
          <mxGeometry relative="1" as="geometry" />
        </mxCell>
        <mxCell id="kf6Z-MlF4UlDV9ZR81g8-15" style="edgeStyle=orthogonalEdgeStyle;rounded=0;orthogonalLoop=1;jettySize=auto;html=1;" parent="1" source="kf6Z-MlF4UlDV9ZR81g8-1" target="kf6Z-MlF4UlDV9ZR81g8-14" edge="1">
          <mxGeometry relative="1" as="geometry" />
        </mxCell>
        <mxCell id="kf6Z-MlF4UlDV9ZR81g8-1" value="" style="shape=image;verticalLabelPosition=bottom;labelBackgroundColor=default;verticalAlign=top;aspect=fixed;imageAspect=0;image=data:image/png,iVBORw0KGgoAAAANSUhEUgAAAGAAAABgCAYAAADimHc4AAAACXBIWXMAAAsTAAALEwEAmpwYAAAKZklEQVR4nO2daXAUxxWAJ3ecVI7K4VSSyvEvyW//TuxUwGz3iiMGOc7p3L4SBxPHSZxUVEmVA5pegcQRwMRgDDZIGGODy4ABC3XvroTEIXSCkNAthO773u3Ua7Rid7TS7s707Mwo81W9KpU0O+p5b7r79XuvexXFxcXFxcXFxcXFxcUpbClc/WkSWH6vspQhgeX3+oq8KwjFT6sM7VAZPqsyXKEy1EAY6iMUTRKGp2d/biYUX1MZOiWupWgDYQiBosxom0rx3wjFTypLiayLGR9Ti/BqlaE8oWiKw4RhbkgoCqkUVaoU78z2e3BWVeaHjbaTnF7+cZWhbsLwecXpZPGs9xPmfYAwtI9QNGRY4QlEZaifULzfRz3f41x5n542E4qfiRh3c9GKLypOJKvw/o9CF1YZumm20hfuHbhKZfgx6HnJtjvvHc9HCEXtcwal+PeK44YZhp9VGe6wTPHaXkFRJ7wMuy/e96FE7QeDxX4WM8UpiPGdoiarFU4WFFTno2jNQu3PKrz/g/N6LEWhnKD3y4qd2Vi44uuE4RPWKxgna4iCeC4mofin8a73MfQHxa4Q6llHGB6wXqk4NaGoRy1Ca2OdBVQT71qVoYBiN+5MVni75Ypk+kW4wRQRGHoI9T6y2HW+oge/otiFf19Y81mV4mKrFUhkGYLhc4Ti+sWvQU8pdiDbv+pLsIiyWmnEZHmvYbfWAKes1r3iC2R8U2W4xWrlEJPl9ap/8JnwNM8LrovuJRPZ/lWfsEz54IrZ28XEUsTnz+Ddo00cOF67Mfbv1LPOsjF/IQ9hqUmw5TUeoabrPY0B8H5LvJ2lNOGSRSS/8nkeDofmDDAxPcJz/KuiDIB6CgoyP5BWAzjd1SRJyu7SR/nY1CDXcrjizzHXZfu93073IosvddlR8iPeM9rM4wFDUvS1KkNqOsMLA0tf+T+cm3Tj0T5UqzEArk6LAVSKj1utHGKy7Cp9dFHlA6HwDN9anHnXABSHc4tXfsFU5UPE0GrlEJPlYPkGPjLZx5Phjep/anqBN9PceP4S9/dP1m3hM6EpniyX2t/SGADtMM0AkEyxWkHExMm2rifIU+X2SEOsASiqNEX52nTc0hEvf/uaGtfNTIZQeJpvCay5ez+KQnklnk9KNwCk7axXFpYqr5Zv4K2DVdwoMGdojPqAVOVDQsLSBDqTK7CAaugr5bI4W78z5v4qRc9JNUC2H3/XaqURg7Kt+GH+7o3tCV1LPVTdPhv7/yg+LNUAKsN7rVYg0RG53HfpCX6uYRdv7i8XPrtZgFFNm4hzgpn32G3VmxdcJ+IzL19+ih+qeE744uA+Bppf5ZWdZ8QKdSo0wdMFBOk2B1ZH9QA0CalMaeUk6Vbw9pJHROKDNb0iFNo8cJX3jbXx0amBmIiknfjvxd/EPMOm8/hbcgzAUF46lL730mPc33yAd480cidypPLvmmfyrJRkAHNzvPmVf+VN/Ze53RmfHlr076dvbNU8G/qdYeVDgZKUKuU4su/yk7x9sIY7gZ7RloQGKGktiH1GiohhA4j6fMmKhyySv+mASGw7hau3Tia8prarKOY5VYryjfcAip+W7b009V/hTmJ8eogHmg8mvC5ObuCcYQNAZE+W8nde+AnvGrnJnYa/+QBvGahIeB14aRoDXDbeAxg6I+fNX+tI5Q9P9vKXLv42Kdd3ZLJXOwQ1Ge8BFFXKWJHKjLukk5N1mzlt2p/UtVMz45oegLplGMBw8uV840vcibQMVAiHYXCiK6nrIYkT++yoT4IBcK8R5e8p+1VaQwKymJwZ43vKfs1P1G5K+jPTocnY56doyLABZreC6jZAXU+AO5HjtRtjyhB1GmDSUgOIyYuHudO42H5MtB9Wtqm6qxovaMLSIaj81jvcabQNVotxH7y2ZKsiIvSPt9tnEs7xr9SdY7WKgfFOsVaB9he3HEr58x1D17UGuGmZGwoBNicxNNHNXyz7xdzQCeN5qtzoKdbq4aplCzFIjDiF0akBvvfS47M9d5V4k/VQ2vq6ZhLGpy0LRcDb4ATGpodEVi3S7gutR3TfK044eqtlwbjesVZud/rH22OyWFApYcRr05amSNm4pzccDW+WnWkbrBJpz0h7d5X+jA9P9ui+Hyw2N0dv1rhTI7rMsAFeoJ7P60nI2Nn/r+kqjEmgQ3Wz0TQo5Kxjx38Ugq1bilUpST1ehNnAW3qmfocoRYy0E97aZgn5iaLGvfJD0XMGoDg3VQOAZ2EnOofrRdI/tp1eXn37nIS7h/nu0p/HGoBinzQD+PzeVaka4NZwHbcDofCM8Gy04zMsFKGaTQaQ156ngyLstbQwC2p5rKa5/4pI/GvbBsa43s2k/R+orNa8/YOgM8XK0sRTN/K4VfSOtfKj1Vlx25UbfEhqCUz/eIeImmrG/z2KbFItzoXNDun2hDqH6/nb10js3t0oebHsl+IamZyqy403/HxHugFmy9MbUjFCOtKQ4XCI1/eW8PyKvyzalmM1/xIbq2XSMVTLfVEelRCK6/UeBih9g8ZrV5/lZhDmYTHxnWvYyf9z4ceLtgF6Q2nbUfEpmcCumHjzC5wpp5iFni1KtV3npTzw1My4iC/B3JJI6RE5dPVPpuwFACDPHUf5HXAapGImhKE/pmIAWGVCnF3PG9Y2WC2iqqBIrRuZaP6542KaMwfN24wxZwDPesVsYJsqYbgxFSPAIiWREULhaX5r+Dova3uDH63K4rnBtUnfPyLbin8gKthkj/XRXOumYg0xX/moQbrruRBwJrOeLf/RwxFky+p7SzhtfFlssMgNfD9lhUcEdsFc7jghKhnMpKzt6DyXMyLZFGUo6UTvUQUHy9eLjJNeZZOochfauE+6WxmP0al+/lbtCwu2RWX4mJJuSAB/TZzDbFCRJMU3HXpM5/ANng6geht2wUeHrecL6tvEMr6adgMIIzDPSrP2DpDZkEFB5fNCCXomciP1oFDrDzmCxdo3++wPWaL8u0ZAW5NRJvjjJa354uEgUgq+eU6cyQyUDmEE8DTMnEy1izlwV0HpB8ufmb+4Wkgo2qJYjTiyjKFAosbGK/Moac03XelQrzk+PSzGcTh0Ceo94aw38LYgh3vgynq9DoBfxncRSGHTmWWfghKMxRo8OHE7YTk3cYjAoUw5wQc/o9iJRMdWLhUDqBS1WTbpGjm4Nfq4xwgXWo847c1vyfav+IZiZ+Do4njDEUzCxS2HReUBFLFean8zpfCC9YJqbHVA92LA+EgoClqvNCxL/LYb8xMBXweiMrTJzHUCSYOoDO22jbej/5wJ1Oc4xVM8SBh+WFkKiLCFo465RG/a1tMxHLqw8albKqRcZZaT2BGRT4AvQrPR4X8qRW2QTElbPN8O3Dl13fNEqol+6W+8Hz0ObVH+n/Ex733iTCKKetKg+AGVoVegctm06gWnkhPMvAcySypDm1WKyqHC2LDC4R4UXSEM58D4bnrSfCnhK8z4nI+h5bDRQaV4m0rxu2AYGDrE7k3YQkvRJPx853dgNHxaXAufYd5lcA+rn8PFxcXFxcXFxcXFxUWJ4n99JEWqxma+gwAAAABJRU5ErkJggg==;" parent="1" vertex="1">
          <mxGeometry x="288.5" y="182" width="56" height="56" as="geometry" />
        </mxCell>
        <mxCell id="kf6Z-MlF4UlDV9ZR81g8-2" value="" style="shape=image;verticalLabelPosition=bottom;verticalAlign=top;imageAspect=0;aspect=fixed;image=data:image/png,iVBORw0KGgoAAAANSUhEUgAAAGAAAABgCAYAAADimHc4AAAACXBIWXMAAAsTAAALEwEAmpwYAAAGQUlEQVR4nO2cbYhVRRjH5zzXO3NX1yizNxPM3kiEPvQpKwyqL0JSEaUSIRFJiCK67sz1pS6BEChEEb1RBElompCBiuud2TPnui1BaqWbZm9riRpkppup5bpPnHsX6e5dU9yZM2fvnR88sB/O7t7n/59nZu6cmSHE4/F4PB6Px+PxeDweT1rg4fiMkNNByJaAq7cCroog1G7g6kfg8hgIdQaE6i3/zNUvwGVHINRa4HJZ/HtkUTjWdQrDi/lbWEa0PxJwuQaEPAhC4dBC9oFQOyHfPocUwpzr9NLLE+szwNVzwOXhoYt+wfiOCDXVdarpoxDmAi43WBT+vxXxD7QWn3KdcqoIhHo9GfHPR2+mtf1B13mng9ZttwFX5xI2IK6EA/F4QxodEGp58uL3RzwwNzqBUJ+4MiCe0pJGB4T8ckDX0BdwuZKI8KZ4Dh+3UhCyx4oJXJ4mBAPSyABX+6tapZBv1jyTV7NsVQFZuHUMaWSAy+4qQfLFKTUPFcIRIOQpKwbEldbIgDcgXQYEQr4xyDMzrXVBvgJk90UHYa5OeAMSqgBIOHwFcG+AU8Ab4A0gHneVNHAMwIh2Y8TwAnEWNT2EmkqM2DzsIKMNfPT6AJIxoDo0PYyaPuYu60Y3IIpNYOdQs7mk0QFXBpw3gU5zl31rx2hoVU8HQq4Gob7u363Q63J+D0kaUOmODmEbGZWs8C1towKuXgKhTroWElwbUA76QnLi58NbgatvXAsI6TLgCHYRmoD4xZtByN9ciwepM6DcFVmeFRXCHHC5x7VwkFYDIvq+Vf3jLYKuRQOTBiyR1xk24KA99edvYcDVUdeigbGQpwa+E8aI/jo0AxiiHFVlqjEyrcWH3YumrO2KwC2EoWZ9QzbA1neCgKt3XYsGJiOvZlUZsD07ecjiVwxYZsWAehp8QcjPSKEAVQZoutSMAWyDefUXdjYBl2fdC6dMxM+kRU2oEh9JgJp9ZcSAiO0zb0C+OKVOWn4XWaxuGZgeRtkZhsSP40/j+gOX84a58D2BUCsGO6SBIWnGiP5g0AA0vi4UHw8aZoKfindAB1xuhNb2uSS//arB8ip3PRFbZ1T8OErN15g1QMhNCYh2JBDytfLe/Za2iaSw3uq6Sn+/v8q4+HGETeONfljgcoc14bk6Aby4iMzZkSUJgZ2kCSO2xor4NioAuNxnSfxdZKm8kSQIluijQ19yuEh0kiajHxqE+sm0+IGQMn6ZQyyCSAA7msZhKXdvvF6PEdtrVfhKHDeeCAj5reGWv58sCK8cVLQuQrGUnYkRXY2a7UfNehIQzWTssWCA2mlQ/L8J3zZpUPEj9my8opgCES8/NPvIuAEBl5uNdT1cvVoj/A4yEjXb6Fw8IwZQbsOAd4y1/iWlqhkChiSHmirnwpmKkD1k3AAQcoGZ1i83D/zbqNnLzkUz1vpZH3YSC8eeRPE+IxWQl89Xia9yE8pb/lwLZyzo98QKhbDZxIHqjFAPVBmg6YvuRTNaAavsGGDoy9jA2Q9q2uZcNKORvcuaAYFQH5rfhcD21lHr30hsArw427wBtLtOxO/BEr3dqgGkpe3aob4Vq1MDelHT6WQ43O1QdwZo1pOY+GWEmuoNYJVWH9EPjK/7XwqBkJ82YAX80b8w+DFqugCjkTcQZywOr7/cu92MGRCyBj9cF++SqBzE8AY4g6vJIOQXvgJcUihARrQ/Hgi5rnyZ6kWulfFdUMpA14Nwo48l6A3wBpBGBn0F1KkBmvWhZivjPh6Lo6+uvOxnx/0YkJQBEa25+gx19klvQFIGhE131/yv9SSDETvpZ0GJVEDunhoDQjICNfvLG1BlANttZwygb9cakJ1V81xH0zjSyKCmWy0Owq9gxCZi2DwWNZuDmp2oee5zcgVpZDCiy+10QZc0UB8ljQ6G9I7yfTsuDNC0zXX+qQA1W+umAnKzXeeeCrCTjMGIHkjYgF24gyR2Iif1YCl7Z/kSvGTE3+PkXW7awXifqM2dcpXvACviY6muc001qOk0jNhmjNgZA6IfQ802YciewZAMeiLH838nGUu5+8u7EDR9r//C1H2o2e8YsdOVDVHsWHn80KwLI1qKL0yq3PmQnYGaToqPol7o73s8Ho/H4/F4PB6Px+MhDvgXenkKeBIN+EIAAAAASUVORK5CYII=;" parent="1" vertex="1">
          <mxGeometry x="286.5" y="360" width="60" height="60" as="geometry" />
        </mxCell>
        <mxCell id="kf6Z-MlF4UlDV9ZR81g8-9" style="edgeStyle=orthogonalEdgeStyle;rounded=0;orthogonalLoop=1;jettySize=auto;html=1;" parent="1" source="kf6Z-MlF4UlDV9ZR81g8-3" target="kf6Z-MlF4UlDV9ZR81g8-1" edge="1">
          <mxGeometry relative="1" as="geometry" />
        </mxCell>
        <mxCell id="kf6Z-MlF4UlDV9ZR81g8-3" value="" style="shape=image;verticalLabelPosition=bottom;verticalAlign=top;imageAspect=0;aspect=fixed;image=data:image/png,iVBORw0KGgoAAAANSUhEUgAAAFAAAABQCAYAAACOEfKtAAAACXBIWXMAAAsTAAALEwEAmpwYAAAVPElEQVR4nO1cCZRUVXous06Sk2SyTPZ1YnKSTGKSyTLZTkxOMhnHrveqQXvcQHBUFHdU6Lq3urtkaRoaGREUFcUR2VsR6Lq3mk1akUVFFgXFYd8EBaHVcRJFp1/O99/7v7pV/aq6quh0c85wz3mnq6ve3f57/+37/3tjsfPlfDlfzpfzpc/KoDHZ3/GkFp7QnZ5Q73lSf+4J9X1f6P2+0Ms8ocfUJvWf9DXJaxoyf+xLNdoT+jlfqj2+UB96Qn/qS/2uL9UaT6p6f/Sy34qdq2XEiNd+0pO6xZfqE1/qoLfHk/o1X+prL7k9+9PV9om6aMO21WufZmyqGWONnUslnm7/VU/oV8wgs8Gw+zcG9XP3BWOXHAsm69PBJHWKPo9+ek9w44Obg8GNK3OTEvqgl8wMS6fTP1Zuf3V1bT+OOqjL7aBNtD16zm7qa1LmFPWNz/Vz9wbDpmyksZk+1aba5HO/EjsXSt2otp/xpVqPgX1r3PNBU9uRYErHByUfTOzep3YHVzV35nak0Nviyezf99afJ7IX5RZLUxtoC2321m9j2xEao+3vlXi6/WdjA118qadjQFeMez6Y2H6SBjph6XvBLTO3BVeMXxvUNnQEgxpX0ERHzNgSyPkHgtZsl51UVzB6zp7g8rGreWd85gvVFLUbL053/oQn9Xh6R+qgbuxqqos20BbalAsOBDfN2BJc1fwC7Uj0feWEzuCWmduDCctO0HsYo0PEB2MDWWob1J95Up1JNGSJVTBATGJQ04qSsgiTv+uJXeGumaROBzc/tNVlsecHpVf+GvcTr2//PU/oDSwibn5oG9Xh3Txq9lvUZqk+QVC54CDVue/ZYwHGbBYs++cDRkBf6rkY3MiHt9LAxj13LBjU2MFEeNaX+u8uTnd+4ZJ09hcSKfXPntATfKmP86Swa3lSRPyFh4LL0qusklEHUD+eyv4rtDm+w2+pRYdy7y84GO4m+xyHkvCE/pdEeukXwaJ+Un3Nl2opfgcnjHvuONXFIphdqOYMCPG+fs/Kn4N5kkhpYlkMCsrDDmpesXp16bafSqT0FZ5Ub/LEr5/2ah77Xz3xRV6EM77UxLL4zmXDGx541dHo6k1fZK5E29G9Bhd4Uj2Dd4ffv5HaGL/svQBj96T+aEBkYVzqyzCgoZPWmd239F0akC/Vx5eI7JfKM3tUPd7n3dWw6HDIltCoTKAbp28O2b1hUW6Xoi7synLMkpqk+jJsUnfBMXa74INj/V08oaai89sf20GDueuJt3jCcytp59KU+n3IPNSFXBr15K6QRe+c9SY9/D9+I9lliLcGsrGyMcPI1jRWtHf7Y2+wKTUl1t/FE3o1OhcLDtBgeMd4Ug2vtC1oWEzCl6obbdw0fUvQms2ZJfiM7yzhuj2hW2ELVtoPjG608e3vvEztivn7WRuviPV38YXejc5ZKF/TYtghIdVfn0WbbaxpeWFoogsOhBraE2pRte3HRfufku04oTNUepZrdsX6uxgfUwctmfdpMIPTqyCQPy8uyHtrL/ttWoBUlgxjtu0mW5sR3+E32oHJzLBq+oB9CcV3WdMqo4wyJ9mtfCfW38UX+iQ6h8tEBGyE7ac+rq4t9R/W8Q/unm1kIJTGta0bgqGTXgptvnu++z0WE2c8ob9e5biPDm5aSe1h8dn8ifV38YQ6lU/AlZAlXZW2UyMyf4F6aAseAxNv6OT1oRYe2ro+1MLwcKyJ82FNfeavKu0PSE1PAqoTsf4uPOkWZQnYtBLa7GSl0Bd2RE6wg1276LPVjkc9qd4xv7/S43dPqMM1MvPblfTpS70D4oYIqAwBsRli/V18qfehczZu68atIdeoXO1Ivq11z4ZMeim3wx7Zzmz6QaJB/yVcLV/q0/ju1pmvhzt0iFVantQvVwJPYVHgAbExbRdqd6y/iy/VC+i8cbExfpnlLr1X/UZZ9cls0UR49kJCGSf0p3GR/U9+Ny6yFzPOiHfYGwn9X6EmltMnFheLPKx1vUFnFh0Ofe9Yfxe4a77UhPG5dmBctn816n34xJBZfjLj+0I/7EtFWpUXAH4tG8meIA+DlAoTlD0WvJNaaPxn1LWaOYhLPTMhsx76KAbSApFGGyOmv0b1MfYB84d9oSehc/YUQqs+peowUE+qBOAnT2jlCbUXJk4hQnLnrJ1Ut3nZCTKDEqkOkqV4vjV2DYENePCZv+d3wH6oe8esHVFoN8IIe32pMgSBJTP+INnxmwAZ8DvqmDHvZCXS3P8EtHbbjdM302CAQFvZ9VExCAtmyc0ztgZ3zNoZpBbmUBWwYzmAKD8wa5ozhu3xoC20CSwQ7Bnii4VPysjS5Lz9VO+GaQaQqNauPDsCptR/ESQ1vjPcRSFMNb6TWHrU7F3EZmzHlfuAmDAx4PTjwedKCMxERt/ACjEWAKs8vublRvEB8DXeU8c3+oVosOSJcEK35VgyG5oyyXn7wsH1nNCp4L4lxwiRZjQEwCZgKrApWBh4XSlQ1ACjKwJ4EqiDumOfNUAuWFrMP0B9oK+oMWBswu4+LIpBj0jG/pB8+5Sqg3XQ54SDUI5LdUteEKdpJYGS0GSt2Z47CKt/1+y3CLdzQU/sBmbby++LZjVP6v+B6UKgKsKhZMYYJVL4gF3hkrmKDA/6RN9AvjGWHjs420XwGZBwsmHdIJfIjjybaKFTggtI1lljl222MU/vKRhQF/1tWnwkuKblRQdyyn+A47VYk4UBUQR3vOTyC4EhArkuB8itSapfQh1f6lfzFiVzknZnVN9QPle3rAua2o5aAuYvODQy5pZbRHXEyMbggqpI5zV0fIWjbXgQFmxYnIu4Ydc1LjpMJgGUA8tBi/J2+1K97kk1y0+qO9gQRsjRmCwHwp1Wm8r+UVUDxBiTKy60uzUMDQB0sKLldFzqG2BvekK/6An1OcQNi5ihrRsIIivkoIbFh4NhUza43LCu4riJJ9T1PDAoBMitUJZlThFrXjE+x5aE8tqBGThedSdSK34XbflSP83+LAaK1XaiYmOqJV44VqkFG+SsrBwCPIV3EB8BAIEdht8xVpZ/Zo7PE6uzLKdFnn8gp3iE/kFZOCcpCTJyjXKA486sisZve3SHRV3CbX7AE/pt10MAQm1tqzs8mf1HEBPhRUD+BgywrprQ2/pCYMONw253Xb3xS9+lkCb1LTP/wEAq2513P/k2E2YL7TBHQcGeZUJi7iMf3uYSe3pRliasTKon8SIiawxoYteALaAlLWG6Pal0XOpvEsHt4IZP3WQ06xIGKcHCei0+3/boG1brvkOeA7RePNn+T0XRGamm+ULtNIpDfYzP+A6/RdVBQN7EO7JB+pl3qK9bH32dF+pFJhKHXsPgV0pdxeFZE9+28ZmmVTbmbAHd+ftz0Uapn4gkIgLarF3TzxwNhbIrD2DZF7pql4jsl+BfYsWBbhg2fiFfcdgVHTrZCGkQo7B/ALHY/SBuMROGTCehZkSBtgiSk6iYvD4UNY5C6YZoYfMFYwVL16VX/HLhXBAuYL97+JSNodKD8slpa5XK6zyRyvw7Bg5NxZExrFZofgi9HzsucuvGaPAK74E1UBfGK08axrRZRaM4AHnV1a/+xZ7EM4Gl2gYTOEeKCGQaHnyGuWH8XhNQKiQi2vSkfp8UipXZkGs8jp5jU0uLzie54kIeD+xNDls0LDxEFgYtZEr9m8u6W10ZAXlVF9poamnhhIuFOK9uyV9ldI6AEKD5KyesDWVjYX2Wu+iTWTDqgQjIjQvyqLAdNYpjHugTfWMTuNyBtA+qn8z4peZk6KIbIbJga7Lxz743MsKIlX2patjw5MlygMgT6vFysqbqsIOkOoE6mCTbeWOe3lsAU6m9hTvHyDz9OXZeKeLxg3dIjgIwaOj4So90N2N4h3EVzgijum1Hmfjvlosh+lLfzPYvxWj0adoY+I64khUHkAmyo75r7CgkSFYSOvSFegD1wH4sM9hsCXdNStUV1iOF4dQr57mJ8mhoF3ynsL2E0FfTbh672loQXUQ41AOQYefWWu68zNz0Y+6i5CwN/QRsPjJD4JfixyEk6FV3MY1XrCSAHtskHtcXZZMBHkeU9uIUj3QZaXFumpqdwI7oNA6TcMmmFSsVk/Skuis1jD2x/NeBSSLAxaLEzuktGKIf5cU2KDik3o5VUXyhtrsCG+4SG9zxZPa/owenvo/fK0Fs8K7dgR9FjsMVS05WgzVdNlczN9itYTBKnbIKUX1YhIB6WzWd+NIQ8B5LwNY8yCgTCRlx/5UQMG8CEaVmTMc3jIexticnkPCvvHhSfY8JiN0c9o+ofAQLf4JtW1EHInsR25HVsHBTJSy8+HBpFrYZrC4Lg+ict1iofHorFIqQqht2bA8WhiB0Ye7QGRf6sYoIKPOVQaOjRBghRlpbb8qnnCenDNTUnu1lriT2HbsmVCKMwLDyqSSZyGbGrotSIgBLYMN9k+UFOoSqZlgHuFg5ndQZL+Kku5Ovf+BVSu52FyXKjMFuYDOGTaDSZszR0IwpVAZo28RCcpMdM2cPmVRsAlVixlAUT+qn2IzBYrhgiBVL2PJqs2vKwGg0uwbZUirdmy3oi+zlZEizu9R+koxXd1FyCeVRhrSawYZ0KSKCeLybo9xBT2buIkO6GWGGAkM6k+9mxoWuLTUnZPHDdaVxjVsTGtLh7nNFEqXRwhlvyJK7ghfhvrDBCFCg1OEYTyrtal/XhYLr5KaSFXXlpFpj2Byu3NYwlsKxDbAtu3KA3wt3ENpkLgDeSONwXErOuYFraee0vOiGkJlBAFSZM9mVQwoy51YjZTmfCEKPYSXAMgOrNvz+TTzoTyE73OTv0AEnFuwI82TgSpUCEyD3YgXFEFFPjwp/ho9Qn2HnRbEfjGq8c200mEA7j+dEUBcAkIKzIhZ+W8V1kA7MOxdKjsEET+h7ouF7y0oEZ9ngC7lDc3bn0mqF/gG9Z+WPJ9Vw7syVM55Qb1QDZ1mZCGLsgI1o7UR8nlrMAIYRz6cFWAYznGUyKNQefB675HhhLvcQguSSGZ8TRvEgVgPZyfNHGJThLCM6SsD8CDIbRFkHIx/a6hxFOEX8754y8qRe51njuRBQhTyKBFQf6VtA1YDAahPavOWRIoCqUA2ujM+ZVuSFHeL5YG6wRtwjFLAObO53ty/UuLIGRTLAZl/BGHV3IwgJucYGsm/Ra441cIY9cp/7A9L3hb61N0gfbimxccu6vNgNjx9zgWx07VfsOmeOiBAmKhoYErj5fAUeRPyRIZ8XVFpshDsCTnmxBqF+aHfn1IRsv8G3uYQcVCJcLdUHQaXU8j9kV7AwqIQNEE/quz2hZht028RuQDy8h0AY7ELMIS+otPAQLbYje5dwfKeqkkhmL+WYA9lDLetIPkSGNduOkL1k2KeXsOY0G8MVisKaZDaMXvbzZY0pvfSLg3FsQRgc0401FwtrYkwYWxjWLIhjA/ZiGM8+24u5n1UUOqiScA/5QV7cNGMLrVhhYB32F9AVsDqMWDeCV05gnRQVB9al3odEShsapfCo+8B27LEoNtKGvjEGjKVVd+WPETk1iw7RHArk+ssGbK0yHtxb8euzf+MJ9QgSIH0r/9h8gefB4c3CB/IJWlDO259L7VhiUjvgdvV2vs598C7qXDNxXRgomoDUjnn7qY9iwATYNzl3X1RqR5cv1cyzOWFQcalNqr/NWf2FyUVraTdwWoUbby31YCdjYpRYtOwEaW48+Mzfl+svo08kAlB6ybTNeVzQM7moHwnnBt99hyU5vc0Xaj8noLsP2BXCGdkAMHXcQ4bN7ScrxANPUR3+P7XgIMVzkSWBqFyUaEDAib2LemtVhIeDBiS9jRMsHzcJlgi6u4gLzqbhM9JvoclsnPeTYgmWEP4wsjmREpA8J1jicy7B0rxT6JvmHupjB50WFWoixoCxmEXPjjT2oEGekFM4YAmWnlTzaTUt4sKrCdYuhW4gqz4usqOMsZ5L8UXabpiUJPROJKAD/KRH6A1xqV8PU3ytOYW8FuPZIASh70RmbKk4DlDxcybFlzGyxjDJ/KWKksxNALtIkrlUZ5CH6B7E8YX6X/yGoFeoxcNM1PJ2kEmYyvnLnGQOlzPW34XDh81nccyBs7/yjzlYH5auLcleZNM2CPaHf8t22zVVHHOA/UhK7lw45sCu3qSzOGgDdmbBzgdtoIlxqMYS8ZgnNCkkfGfsza7guqn2IA782ArvgsEi9zhoI/X7sf4urGlbnGAUDN2K2wH6Eh712pY7J+cc9YIbyTsUAIe7QyvtD7K38KgXrhSI9Xdh8LJF9e1hQ86lAcEACuBh4iHadzaHDY3YMJgnEbD95MAdNix23HVElbcC+Ul9XeFxVxx1nWxdMAMSmOOu8aQaWk0fhFrb9DVWRAN53HV31IHrak5Qhm2m6KYPIpSbFYvMrtDtknphte0bfDLnPcHtG8AD1wb65omezZF/e4atiY/844KevCP/uou+syYLAl33VwPGJpAzHZ78/IB8Z0vAjti5cumEV+LKk6K3vQndyUZymBYCT+HxnXmXTuC38Dyd1GsT9R1/UM35vnPi0gnOCRxio/XhtSdIyC4jq8Hm390GbcpYITLkI689edC59mTx4bz4DJLMy7lmAGPC++61J7n49wBcexJ18c7wqZscORWNp4FwRHyLEjOB2BuBcYtETfvbGXv5Dn3H/eBdl8BIsUC+c+mLd/RCvHudzeVGWwN68Y4b7xhpr34CNsfHteiOlqT6GgaH6/EQe0ZQxoKkIejJR1fxAKEJEWVKK27/KsFm1uvBzkNsNkRhFh7Mg6nIMhBqIvpC/jP6toGtiKuftubFTc6hy8cO9gqOAgyFvedG/IAM5zSt0m4COE4w8aU50NCIZeRfPraL2izVJ2w/Xiz38rFKE436vHg2O77H9XcPb6dDOohFwMhGbjKIZCaRu/4O9h1nsBKIQBnwPdnfhi8bzDvmjJyxF3NtoW0QF0F0EMxcf7eWQql8NQHA1DAqGJEe0u/l4nTnF3yhXqrmAsZc4jlNZmspKIyLuUfBxIHx4DRRJRcwEuhhY9oYe+xcKLWIqIWT4itA9/a4AhQTxSFnl8XNaSeTIVBuf6SIkmqoK0+xy80VoHuIRQEUmDjMMTocaWLF4SHIjYVnRAa8jMCRK0Kfy7yEFqc0hRpS7U1HTjrbEIqkVXAJ7f/LmeC+KjUGoqq3B1WgFT8zeJ7aA0UQT6p7zyaYXqygTST9AMpHOq5zDfJx5L0gCwL3JvR1v+fL+XK+nC+xH+HyfwgGIJb8B7CWAAAAAElFTkSuQmCC;" parent="1" vertex="1">
          <mxGeometry x="290" y="73.5" width="53" height="53" as="geometry" />
        </mxCell>
        <mxCell id="kf6Z-MlF4UlDV9ZR81g8-6" value="" style="edgeStyle=orthogonalEdgeStyle;rounded=0;orthogonalLoop=1;jettySize=auto;html=1;" parent="1" source="kf6Z-MlF4UlDV9ZR81g8-5" target="kf6Z-MlF4UlDV9ZR81g8-3" edge="1">
          <mxGeometry relative="1" as="geometry" />
        </mxCell>
        <mxCell id="kf6Z-MlF4UlDV9ZR81g8-7" value="" style="edgeStyle=orthogonalEdgeStyle;rounded=0;orthogonalLoop=1;jettySize=auto;html=1;" parent="1" source="kf6Z-MlF4UlDV9ZR81g8-5" target="kf6Z-MlF4UlDV9ZR81g8-3" edge="1">
          <mxGeometry relative="1" as="geometry" />
        </mxCell>
        <mxCell id="kf6Z-MlF4UlDV9ZR81g8-5" value="&lt;h3&gt;Utente&lt;/h3&gt;" style="shape=umlActor;verticalLabelPosition=bottom;verticalAlign=top;html=1;outlineConnect=0;" parent="1" vertex="1">
          <mxGeometry x="130" y="70" width="30" height="60" as="geometry" />
        </mxCell>
        <mxCell id="kf6Z-MlF4UlDV9ZR81g8-10" value="" style="shape=image;verticalLabelPosition=bottom;labelBackgroundColor=default;verticalAlign=top;aspect=fixed;imageAspect=0;image=data:image/png,iVBORw0KGgoAAAANSUhEUgAAAGAAAABgCAYAAADimHc4AAAACXBIWXMAAAsTAAALEwEAmpwYAAAKZklEQVR4nO2daXAUxxWAJ3ecVI7K4VSSyvEvyW//TuxUwGz3iiMGOc7p3L4SBxPHSZxUVEmVA5pegcQRwMRgDDZIGGODy4ABC3XvroTEIXSCkNAthO773u3Ua7Rid7TS7s707Mwo81W9KpU0O+p5b7r79XuvexXFxcXFxcXFxcXFxcUpbClc/WkSWH6vspQhgeX3+oq8KwjFT6sM7VAZPqsyXKEy1EAY6iMUTRKGp2d/biYUX1MZOiWupWgDYQiBosxom0rx3wjFTypLiayLGR9Ti/BqlaE8oWiKw4RhbkgoCqkUVaoU78z2e3BWVeaHjbaTnF7+cZWhbsLwecXpZPGs9xPmfYAwtI9QNGRY4QlEZaifULzfRz3f41x5n542E4qfiRh3c9GKLypOJKvw/o9CF1YZumm20hfuHbhKZfgx6HnJtjvvHc9HCEXtcwal+PeK44YZhp9VGe6wTPHaXkFRJ7wMuy/e96FE7QeDxX4WM8UpiPGdoiarFU4WFFTno2jNQu3PKrz/g/N6LEWhnKD3y4qd2Vi44uuE4RPWKxgna4iCeC4mofin8a73MfQHxa4Q6llHGB6wXqk4NaGoRy1Ca2OdBVQT71qVoYBiN+5MVni75Ypk+kW4wRQRGHoI9T6y2HW+oge/otiFf19Y81mV4mKrFUhkGYLhc4Ti+sWvQU8pdiDbv+pLsIiyWmnEZHmvYbfWAKes1r3iC2R8U2W4xWrlEJPl9ap/8JnwNM8LrovuJRPZ/lWfsEz54IrZ28XEUsTnz+Ddo00cOF67Mfbv1LPOsjF/IQ9hqUmw5TUeoabrPY0B8H5LvJ2lNOGSRSS/8nkeDofmDDAxPcJz/KuiDIB6CgoyP5BWAzjd1SRJyu7SR/nY1CDXcrjizzHXZfu93073IosvddlR8iPeM9rM4wFDUvS1KkNqOsMLA0tf+T+cm3Tj0T5UqzEArk6LAVSKj1utHGKy7Cp9dFHlA6HwDN9anHnXABSHc4tXfsFU5UPE0GrlEJPlYPkGPjLZx5Phjep/anqBN9PceP4S9/dP1m3hM6EpniyX2t/SGADtMM0AkEyxWkHExMm2rifIU+X2SEOsASiqNEX52nTc0hEvf/uaGtfNTIZQeJpvCay5ez+KQnklnk9KNwCk7axXFpYqr5Zv4K2DVdwoMGdojPqAVOVDQsLSBDqTK7CAaugr5bI4W78z5v4qRc9JNUC2H3/XaqURg7Kt+GH+7o3tCV1LPVTdPhv7/yg+LNUAKsN7rVYg0RG53HfpCX6uYRdv7i8XPrtZgFFNm4hzgpn32G3VmxdcJ+IzL19+ih+qeE744uA+Bppf5ZWdZ8QKdSo0wdMFBOk2B1ZH9QA0CalMaeUk6Vbw9pJHROKDNb0iFNo8cJX3jbXx0amBmIiknfjvxd/EPMOm8/hbcgzAUF46lL730mPc33yAd480cidypPLvmmfyrJRkAHNzvPmVf+VN/Ze53RmfHlr076dvbNU8G/qdYeVDgZKUKuU4su/yk7x9sIY7gZ7RloQGKGktiH1GiohhA4j6fMmKhyySv+mASGw7hau3Tia8prarKOY5VYryjfcAip+W7b009V/hTmJ8eogHmg8mvC5ObuCcYQNAZE+W8nde+AnvGrnJnYa/+QBvGahIeB14aRoDXDbeAxg6I+fNX+tI5Q9P9vKXLv42Kdd3ZLJXOwQ1Ge8BFFXKWJHKjLukk5N1mzlt2p/UtVMz45oegLplGMBw8uV840vcibQMVAiHYXCiK6nrIYkT++yoT4IBcK8R5e8p+1VaQwKymJwZ43vKfs1P1G5K+jPTocnY56doyLABZreC6jZAXU+AO5HjtRtjyhB1GmDSUgOIyYuHudO42H5MtB9Wtqm6qxovaMLSIaj81jvcabQNVotxH7y2ZKsiIvSPt9tnEs7xr9SdY7WKgfFOsVaB9he3HEr58x1D17UGuGmZGwoBNicxNNHNXyz7xdzQCeN5qtzoKdbq4aplCzFIjDiF0akBvvfS47M9d5V4k/VQ2vq6ZhLGpy0LRcDb4ATGpodEVi3S7gutR3TfK044eqtlwbjesVZud/rH22OyWFApYcRr05amSNm4pzccDW+WnWkbrBJpz0h7d5X+jA9P9ui+Hyw2N0dv1rhTI7rMsAFeoJ7P60nI2Nn/r+kqjEmgQ3Wz0TQo5Kxjx38Ugq1bilUpST1ehNnAW3qmfocoRYy0E97aZgn5iaLGvfJD0XMGoDg3VQOAZ2EnOofrRdI/tp1eXn37nIS7h/nu0p/HGoBinzQD+PzeVaka4NZwHbcDofCM8Gy04zMsFKGaTQaQ156ngyLstbQwC2p5rKa5/4pI/GvbBsa43s2k/R+orNa8/YOgM8XK0sRTN/K4VfSOtfKj1Vlx25UbfEhqCUz/eIeImmrG/z2KbFItzoXNDun2hDqH6/nb10js3t0oebHsl+IamZyqy403/HxHugFmy9MbUjFCOtKQ4XCI1/eW8PyKvyzalmM1/xIbq2XSMVTLfVEelRCK6/UeBih9g8ZrV5/lZhDmYTHxnWvYyf9z4ceLtgF6Q2nbUfEpmcCumHjzC5wpp5iFni1KtV3npTzw1My4iC/B3JJI6RE5dPVPpuwFACDPHUf5HXAapGImhKE/pmIAWGVCnF3PG9Y2WC2iqqBIrRuZaP6542KaMwfN24wxZwDPesVsYJsqYbgxFSPAIiWREULhaX5r+Dova3uDH63K4rnBtUnfPyLbin8gKthkj/XRXOumYg0xX/moQbrruRBwJrOeLf/RwxFky+p7SzhtfFlssMgNfD9lhUcEdsFc7jghKhnMpKzt6DyXMyLZFGUo6UTvUQUHy9eLjJNeZZOochfauE+6WxmP0al+/lbtCwu2RWX4mJJuSAB/TZzDbFCRJMU3HXpM5/ANng6geht2wUeHrecL6tvEMr6adgMIIzDPSrP2DpDZkEFB5fNCCXomciP1oFDrDzmCxdo3++wPWaL8u0ZAW5NRJvjjJa354uEgUgq+eU6cyQyUDmEE8DTMnEy1izlwV0HpB8ufmb+4Wkgo2qJYjTiyjKFAosbGK/Moac03XelQrzk+PSzGcTh0Ceo94aw38LYgh3vgynq9DoBfxncRSGHTmWWfghKMxRo8OHE7YTk3cYjAoUw5wQc/o9iJRMdWLhUDqBS1WTbpGjm4Nfq4xwgXWo847c1vyfav+IZiZ+Do4njDEUzCxS2HReUBFLFean8zpfCC9YJqbHVA92LA+EgoClqvNCxL/LYb8xMBXweiMrTJzHUCSYOoDO22jbej/5wJ1Oc4xVM8SBh+WFkKiLCFo465RG/a1tMxHLqw8albKqRcZZaT2BGRT4AvQrPR4X8qRW2QTElbPN8O3Dl13fNEqol+6W+8Hz0ObVH+n/Ex733iTCKKetKg+AGVoVegctm06gWnkhPMvAcySypDm1WKyqHC2LDC4R4UXSEM58D4bnrSfCnhK8z4nI+h5bDRQaV4m0rxu2AYGDrE7k3YQkvRJPx853dgNHxaXAufYd5lcA+rn8PFxcXFxcXFxcXFxUWJ4n99JEWqxma+gwAAAABJRU5ErkJggg==;" parent="1" vertex="1">
          <mxGeometry x="80" y="280" width="56" height="56" as="geometry" />
        </mxCell>
        <mxCell id="kf6Z-MlF4UlDV9ZR81g8-25" style="edgeStyle=orthogonalEdgeStyle;rounded=0;orthogonalLoop=1;jettySize=auto;html=1;entryX=0.5;entryY=0;entryDx=0;entryDy=0;" parent="1" source="kf6Z-MlF4UlDV9ZR81g8-11" target="kf6Z-MlF4UlDV9ZR81g8-2" edge="1">
          <mxGeometry relative="1" as="geometry" />
        </mxCell>
        <mxCell id="kf6Z-MlF4UlDV9ZR81g8-11" value="" style="shape=image;verticalLabelPosition=bottom;labelBackgroundColor=default;verticalAlign=top;aspect=fixed;imageAspect=0;image=data:image/png,iVBORw0KGgoAAAANSUhEUgAAAGAAAABgCAYAAADimHc4AAAACXBIWXMAAAsTAAALEwEAmpwYAAAKZklEQVR4nO2daXAUxxWAJ3ecVI7K4VSSyvEvyW//TuxUwGz3iiMGOc7p3L4SBxPHSZxUVEmVA5pegcQRwMRgDDZIGGODy4ABC3XvroTEIXSCkNAthO773u3Ua7Rid7TS7s707Mwo81W9KpU0O+p5b7r79XuvexXFxcXFxcXFxcXFxcUpbClc/WkSWH6vspQhgeX3+oq8KwjFT6sM7VAZPqsyXKEy1EAY6iMUTRKGp2d/biYUX1MZOiWupWgDYQiBosxom0rx3wjFTypLiayLGR9Ti/BqlaE8oWiKw4RhbkgoCqkUVaoU78z2e3BWVeaHjbaTnF7+cZWhbsLwecXpZPGs9xPmfYAwtI9QNGRY4QlEZaifULzfRz3f41x5n542E4qfiRh3c9GKLypOJKvw/o9CF1YZumm20hfuHbhKZfgx6HnJtjvvHc9HCEXtcwal+PeK44YZhp9VGe6wTPHaXkFRJ7wMuy/e96FE7QeDxX4WM8UpiPGdoiarFU4WFFTno2jNQu3PKrz/g/N6LEWhnKD3y4qd2Vi44uuE4RPWKxgna4iCeC4mofin8a73MfQHxa4Q6llHGB6wXqk4NaGoRy1Ca2OdBVQT71qVoYBiN+5MVni75Ypk+kW4wRQRGHoI9T6y2HW+oge/otiFf19Y81mV4mKrFUhkGYLhc4Ti+sWvQU8pdiDbv+pLsIiyWmnEZHmvYbfWAKes1r3iC2R8U2W4xWrlEJPl9ap/8JnwNM8LrovuJRPZ/lWfsEz54IrZ28XEUsTnz+Ddo00cOF67Mfbv1LPOsjF/IQ9hqUmw5TUeoabrPY0B8H5LvJ2lNOGSRSS/8nkeDofmDDAxPcJz/KuiDIB6CgoyP5BWAzjd1SRJyu7SR/nY1CDXcrjizzHXZfu93073IosvddlR8iPeM9rM4wFDUvS1KkNqOsMLA0tf+T+cm3Tj0T5UqzEArk6LAVSKj1utHGKy7Cp9dFHlA6HwDN9anHnXABSHc4tXfsFU5UPE0GrlEJPlYPkGPjLZx5Phjep/anqBN9PceP4S9/dP1m3hM6EpniyX2t/SGADtMM0AkEyxWkHExMm2rifIU+X2SEOsASiqNEX52nTc0hEvf/uaGtfNTIZQeJpvCay5ez+KQnklnk9KNwCk7axXFpYqr5Zv4K2DVdwoMGdojPqAVOVDQsLSBDqTK7CAaugr5bI4W78z5v4qRc9JNUC2H3/XaqURg7Kt+GH+7o3tCV1LPVTdPhv7/yg+LNUAKsN7rVYg0RG53HfpCX6uYRdv7i8XPrtZgFFNm4hzgpn32G3VmxdcJ+IzL19+ih+qeE744uA+Bppf5ZWdZ8QKdSo0wdMFBOk2B1ZH9QA0CalMaeUk6Vbw9pJHROKDNb0iFNo8cJX3jbXx0amBmIiknfjvxd/EPMOm8/hbcgzAUF46lL730mPc33yAd480cidypPLvmmfyrJRkAHNzvPmVf+VN/Ze53RmfHlr076dvbNU8G/qdYeVDgZKUKuU4su/yk7x9sIY7gZ7RloQGKGktiH1GiohhA4j6fMmKhyySv+mASGw7hau3Tia8prarKOY5VYryjfcAip+W7b009V/hTmJ8eogHmg8mvC5ObuCcYQNAZE+W8nde+AnvGrnJnYa/+QBvGahIeB14aRoDXDbeAxg6I+fNX+tI5Q9P9vKXLv42Kdd3ZLJXOwQ1Ge8BFFXKWJHKjLukk5N1mzlt2p/UtVMz45oegLplGMBw8uV840vcibQMVAiHYXCiK6nrIYkT++yoT4IBcK8R5e8p+1VaQwKymJwZ43vKfs1P1G5K+jPTocnY56doyLABZreC6jZAXU+AO5HjtRtjyhB1GmDSUgOIyYuHudO42H5MtB9Wtqm6qxovaMLSIaj81jvcabQNVotxH7y2ZKsiIvSPt9tnEs7xr9SdY7WKgfFOsVaB9he3HEr58x1D17UGuGmZGwoBNicxNNHNXyz7xdzQCeN5qtzoKdbq4aplCzFIjDiF0akBvvfS47M9d5V4k/VQ2vq6ZhLGpy0LRcDb4ATGpodEVi3S7gutR3TfK044eqtlwbjesVZud/rH22OyWFApYcRr05amSNm4pzccDW+WnWkbrBJpz0h7d5X+jA9P9ui+Hyw2N0dv1rhTI7rMsAFeoJ7P60nI2Nn/r+kqjEmgQ3Wz0TQo5Kxjx38Ugq1bilUpST1ehNnAW3qmfocoRYy0E97aZgn5iaLGvfJD0XMGoDg3VQOAZ2EnOofrRdI/tp1eXn37nIS7h/nu0p/HGoBinzQD+PzeVaka4NZwHbcDofCM8Gy04zMsFKGaTQaQ156ngyLstbQwC2p5rKa5/4pI/GvbBsa43s2k/R+orNa8/YOgM8XK0sRTN/K4VfSOtfKj1Vlx25UbfEhqCUz/eIeImmrG/z2KbFItzoXNDun2hDqH6/nb10js3t0oebHsl+IamZyqy403/HxHugFmy9MbUjFCOtKQ4XCI1/eW8PyKvyzalmM1/xIbq2XSMVTLfVEelRCK6/UeBih9g8ZrV5/lZhDmYTHxnWvYyf9z4ceLtgF6Q2nbUfEpmcCumHjzC5wpp5iFni1KtV3npTzw1My4iC/B3JJI6RE5dPVPpuwFACDPHUf5HXAapGImhKE/pmIAWGVCnF3PG9Y2WC2iqqBIrRuZaP6542KaMwfN24wxZwDPesVsYJsqYbgxFSPAIiWREULhaX5r+Dova3uDH63K4rnBtUnfPyLbin8gKthkj/XRXOumYg0xX/moQbrruRBwJrOeLf/RwxFky+p7SzhtfFlssMgNfD9lhUcEdsFc7jghKhnMpKzt6DyXMyLZFGUo6UTvUQUHy9eLjJNeZZOochfauE+6WxmP0al+/lbtCwu2RWX4mJJuSAB/TZzDbFCRJMU3HXpM5/ANng6geht2wUeHrecL6tvEMr6adgMIIzDPSrP2DpDZkEFB5fNCCXomciP1oFDrDzmCxdo3++wPWaL8u0ZAW5NRJvjjJa354uEgUgq+eU6cyQyUDmEE8DTMnEy1izlwV0HpB8ufmb+4Wkgo2qJYjTiyjKFAosbGK/Moac03XelQrzk+PSzGcTh0Ceo94aw38LYgh3vgynq9DoBfxncRSGHTmWWfghKMxRo8OHE7YTk3cYjAoUw5wQc/o9iJRMdWLhUDqBS1WTbpGjm4Nfq4xwgXWo847c1vyfav+IZiZ+Do4njDEUzCxS2HReUBFLFean8zpfCC9YJqbHVA92LA+EgoClqvNCxL/LYb8xMBXweiMrTJzHUCSYOoDO22jbej/5wJ1Oc4xVM8SBh+WFkKiLCFo465RG/a1tMxHLqw8albKqRcZZaT2BGRT4AvQrPR4X8qRW2QTElbPN8O3Dl13fNEqol+6W+8Hz0ObVH+n/Ex733iTCKKetKg+AGVoVegctm06gWnkhPMvAcySypDm1WKyqHC2LDC4R4UXSEM58D4bnrSfCnhK8z4nI+h5bDRQaV4m0rxu2AYGDrE7k3YQkvRJPx853dgNHxaXAufYd5lcA+rn8PFxcXFxcXFxcXFxUWJ4n99JEWqxma+gwAAAABJRU5ErkJggg==;" parent="1" vertex="1">
          <mxGeometry x="288" y="280" width="56" height="56" as="geometry" />
        </mxCell>
        <mxCell id="kf6Z-MlF4UlDV9ZR81g8-24" style="edgeStyle=orthogonalEdgeStyle;rounded=0;orthogonalLoop=1;jettySize=auto;html=1;" parent="1" source="kf6Z-MlF4UlDV9ZR81g8-14" target="kf6Z-MlF4UlDV9ZR81g8-16" edge="1">
          <mxGeometry relative="1" as="geometry" />
        </mxCell>
        <mxCell id="kf6Z-MlF4UlDV9ZR81g8-14" value="" style="shape=image;verticalLabelPosition=bottom;labelBackgroundColor=default;verticalAlign=top;aspect=fixed;imageAspect=0;image=data:image/png,iVBORw0KGgoAAAANSUhEUgAAAGAAAABgCAYAAADimHc4AAAACXBIWXMAAAsTAAALEwEAmpwYAAAKZklEQVR4nO2daXAUxxWAJ3ecVI7K4VSSyvEvyW//TuxUwGz3iiMGOc7p3L4SBxPHSZxUVEmVA5pegcQRwMRgDDZIGGODy4ABC3XvroTEIXSCkNAthO773u3Ua7Rid7TS7s707Mwo81W9KpU0O+p5b7r79XuvexXFxcXFxcXFxcXFxcUpbClc/WkSWH6vspQhgeX3+oq8KwjFT6sM7VAZPqsyXKEy1EAY6iMUTRKGp2d/biYUX1MZOiWupWgDYQiBosxom0rx3wjFTypLiayLGR9Ti/BqlaE8oWiKw4RhbkgoCqkUVaoU78z2e3BWVeaHjbaTnF7+cZWhbsLwecXpZPGs9xPmfYAwtI9QNGRY4QlEZaifULzfRz3f41x5n542E4qfiRh3c9GKLypOJKvw/o9CF1YZumm20hfuHbhKZfgx6HnJtjvvHc9HCEXtcwal+PeK44YZhp9VGe6wTPHaXkFRJ7wMuy/e96FE7QeDxX4WM8UpiPGdoiarFU4WFFTno2jNQu3PKrz/g/N6LEWhnKD3y4qd2Vi44uuE4RPWKxgna4iCeC4mofin8a73MfQHxa4Q6llHGB6wXqk4NaGoRy1Ca2OdBVQT71qVoYBiN+5MVni75Ypk+kW4wRQRGHoI9T6y2HW+oge/otiFf19Y81mV4mKrFUhkGYLhc4Ti+sWvQU8pdiDbv+pLsIiyWmnEZHmvYbfWAKes1r3iC2R8U2W4xWrlEJPl9ap/8JnwNM8LrovuJRPZ/lWfsEz54IrZ28XEUsTnz+Ddo00cOF67Mfbv1LPOsjF/IQ9hqUmw5TUeoabrPY0B8H5LvJ2lNOGSRSS/8nkeDofmDDAxPcJz/KuiDIB6CgoyP5BWAzjd1SRJyu7SR/nY1CDXcrjizzHXZfu93073IosvddlR8iPeM9rM4wFDUvS1KkNqOsMLA0tf+T+cm3Tj0T5UqzEArk6LAVSKj1utHGKy7Cp9dFHlA6HwDN9anHnXABSHc4tXfsFU5UPE0GrlEJPlYPkGPjLZx5Phjep/anqBN9PceP4S9/dP1m3hM6EpniyX2t/SGADtMM0AkEyxWkHExMm2rifIU+X2SEOsASiqNEX52nTc0hEvf/uaGtfNTIZQeJpvCay5ez+KQnklnk9KNwCk7axXFpYqr5Zv4K2DVdwoMGdojPqAVOVDQsLSBDqTK7CAaugr5bI4W78z5v4qRc9JNUC2H3/XaqURg7Kt+GH+7o3tCV1LPVTdPhv7/yg+LNUAKsN7rVYg0RG53HfpCX6uYRdv7i8XPrtZgFFNm4hzgpn32G3VmxdcJ+IzL19+ih+qeE744uA+Bppf5ZWdZ8QKdSo0wdMFBOk2B1ZH9QA0CalMaeUk6Vbw9pJHROKDNb0iFNo8cJX3jbXx0amBmIiknfjvxd/EPMOm8/hbcgzAUF46lL730mPc33yAd480cidypPLvmmfyrJRkAHNzvPmVf+VN/Ze53RmfHlr076dvbNU8G/qdYeVDgZKUKuU4su/yk7x9sIY7gZ7RloQGKGktiH1GiohhA4j6fMmKhyySv+mASGw7hau3Tia8prarKOY5VYryjfcAip+W7b009V/hTmJ8eogHmg8mvC5ObuCcYQNAZE+W8nde+AnvGrnJnYa/+QBvGahIeB14aRoDXDbeAxg6I+fNX+tI5Q9P9vKXLv42Kdd3ZLJXOwQ1Ge8BFFXKWJHKjLukk5N1mzlt2p/UtVMz45oegLplGMBw8uV840vcibQMVAiHYXCiK6nrIYkT++yoT4IBcK8R5e8p+1VaQwKymJwZ43vKfs1P1G5K+jPTocnY56doyLABZreC6jZAXU+AO5HjtRtjyhB1GmDSUgOIyYuHudO42H5MtB9Wtqm6qxovaMLSIaj81jvcabQNVotxH7y2ZKsiIvSPt9tnEs7xr9SdY7WKgfFOsVaB9he3HEr58x1D17UGuGmZGwoBNicxNNHNXyz7xdzQCeN5qtzoKdbq4aplCzFIjDiF0akBvvfS47M9d5V4k/VQ2vq6ZhLGpy0LRcDb4ATGpodEVi3S7gutR3TfK044eqtlwbjesVZud/rH22OyWFApYcRr05amSNm4pzccDW+WnWkbrBJpz0h7d5X+jA9P9ui+Hyw2N0dv1rhTI7rMsAFeoJ7P60nI2Nn/r+kqjEmgQ3Wz0TQo5Kxjx38Ugq1bilUpST1ehNnAW3qmfocoRYy0E97aZgn5iaLGvfJD0XMGoDg3VQOAZ2EnOofrRdI/tp1eXn37nIS7h/nu0p/HGoBinzQD+PzeVaka4NZwHbcDofCM8Gy04zMsFKGaTQaQ156ngyLstbQwC2p5rKa5/4pI/GvbBsa43s2k/R+orNa8/YOgM8XK0sRTN/K4VfSOtfKj1Vlx25UbfEhqCUz/eIeImmrG/z2KbFItzoXNDun2hDqH6/nb10js3t0oebHsl+IamZyqy403/HxHugFmy9MbUjFCOtKQ4XCI1/eW8PyKvyzalmM1/xIbq2XSMVTLfVEelRCK6/UeBih9g8ZrV5/lZhDmYTHxnWvYyf9z4ceLtgF6Q2nbUfEpmcCumHjzC5wpp5iFni1KtV3npTzw1My4iC/B3JJI6RE5dPVPpuwFACDPHUf5HXAapGImhKE/pmIAWGVCnF3PG9Y2WC2iqqBIrRuZaP6542KaMwfN24wxZwDPesVsYJsqYbgxFSPAIiWREULhaX5r+Dova3uDH63K4rnBtUnfPyLbin8gKthkj/XRXOumYg0xX/moQbrruRBwJrOeLf/RwxFky+p7SzhtfFlssMgNfD9lhUcEdsFc7jghKhnMpKzt6DyXMyLZFGUo6UTvUQUHy9eLjJNeZZOochfauE+6WxmP0al+/lbtCwu2RWX4mJJuSAB/TZzDbFCRJMU3HXpM5/ANng6geht2wUeHrecL6tvEMr6adgMIIzDPSrP2DpDZkEFB5fNCCXomciP1oFDrDzmCxdo3++wPWaL8u0ZAW5NRJvjjJa354uEgUgq+eU6cyQyUDmEE8DTMnEy1izlwV0HpB8ufmb+4Wkgo2qJYjTiyjKFAosbGK/Moac03XelQrzk+PSzGcTh0Ceo94aw38LYgh3vgynq9DoBfxncRSGHTmWWfghKMxRo8OHE7YTk3cYjAoUw5wQc/o9iJRMdWLhUDqBS1WTbpGjm4Nfq4xwgXWo847c1vyfav+IZiZ+Do4njDEUzCxS2HReUBFLFean8zpfCC9YJqbHVA92LA+EgoClqvNCxL/LYb8xMBXweiMrTJzHUCSYOoDO22jbej/5wJ1Oc4xVM8SBh+WFkKiLCFo465RG/a1tMxHLqw8albKqRcZZaT2BGRT4AvQrPR4X8qRW2QTElbPN8O3Dl13fNEqol+6W+8Hz0ObVH+n/Ex733iTCKKetKg+AGVoVegctm06gWnkhPMvAcySypDm1WKyqHC2LDC4R4UXSEM58D4bnrSfCnhK8z4nI+h5bDRQaV4m0rxu2AYGDrE7k3YQkvRJPx853dgNHxaXAufYd5lcA+rn8PFxcXFxcXFxcXFxUWJ4n99JEWqxma+gwAAAABJRU5ErkJggg==;" parent="1" vertex="1">
          <mxGeometry x="480" y="280" width="56" height="56" as="geometry" />
        </mxCell>
        <mxCell id="kf6Z-MlF4UlDV9ZR81g8-16" value="" style="shape=image;verticalLabelPosition=bottom;verticalAlign=top;imageAspect=0;aspect=fixed;image=data:image/png,iVBORw0KGgoAAAANSUhEUgAAAGAAAABgCAYAAADimHc4AAAACXBIWXMAAAsTAAALEwEAmpwYAAAGQUlEQVR4nO2cbYhVRRjH5zzXO3NX1yizNxPM3kiEPvQpKwyqL0JSEaUSIRFJiCK67sz1pS6BEChEEb1RBElompCBiuud2TPnui1BaqWbZm9riRpkppup5bpPnHsX6e5dU9yZM2fvnR88sB/O7t7n/59nZu6cmSHE4/F4PB6Px+PxeDweT1rg4fiMkNNByJaAq7cCroog1G7g6kfg8hgIdQaE6i3/zNUvwGVHINRa4HJZ/HtkUTjWdQrDi/lbWEa0PxJwuQaEPAhC4dBC9oFQOyHfPocUwpzr9NLLE+szwNVzwOXhoYt+wfiOCDXVdarpoxDmAi43WBT+vxXxD7QWn3KdcqoIhHo9GfHPR2+mtf1B13mng9ZttwFX5xI2IK6EA/F4QxodEGp58uL3RzwwNzqBUJ+4MiCe0pJGB4T8ckDX0BdwuZKI8KZ4Dh+3UhCyx4oJXJ4mBAPSyABX+6tapZBv1jyTV7NsVQFZuHUMaWSAy+4qQfLFKTUPFcIRIOQpKwbEldbIgDcgXQYEQr4xyDMzrXVBvgJk90UHYa5OeAMSqgBIOHwFcG+AU8Ab4A0gHneVNHAMwIh2Y8TwAnEWNT2EmkqM2DzsIKMNfPT6AJIxoDo0PYyaPuYu60Y3IIpNYOdQs7mk0QFXBpw3gU5zl31rx2hoVU8HQq4Gob7u363Q63J+D0kaUOmODmEbGZWs8C1towKuXgKhTroWElwbUA76QnLi58NbgatvXAsI6TLgCHYRmoD4xZtByN9ciwepM6DcFVmeFRXCHHC5x7VwkFYDIvq+Vf3jLYKuRQOTBiyR1xk24KA99edvYcDVUdeigbGQpwa+E8aI/jo0AxiiHFVlqjEyrcWH3YumrO2KwC2EoWZ9QzbA1neCgKt3XYsGJiOvZlUZsD07ecjiVwxYZsWAehp8QcjPSKEAVQZoutSMAWyDefUXdjYBl2fdC6dMxM+kRU2oEh9JgJp9ZcSAiO0zb0C+OKVOWn4XWaxuGZgeRtkZhsSP40/j+gOX84a58D2BUCsGO6SBIWnGiP5g0AA0vi4UHw8aZoKfindAB1xuhNb2uSS//arB8ip3PRFbZ1T8OErN15g1QMhNCYh2JBDytfLe/Za2iaSw3uq6Sn+/v8q4+HGETeONfljgcoc14bk6Aby4iMzZkSUJgZ2kCSO2xor4NioAuNxnSfxdZKm8kSQIluijQ19yuEh0kiajHxqE+sm0+IGQMn6ZQyyCSAA7msZhKXdvvF6PEdtrVfhKHDeeCAj5reGWv58sCK8cVLQuQrGUnYkRXY2a7UfNehIQzWTssWCA2mlQ/L8J3zZpUPEj9my8opgCES8/NPvIuAEBl5uNdT1cvVoj/A4yEjXb6Fw8IwZQbsOAd4y1/iWlqhkChiSHmirnwpmKkD1k3AAQcoGZ1i83D/zbqNnLzkUz1vpZH3YSC8eeRPE+IxWQl89Xia9yE8pb/lwLZyzo98QKhbDZxIHqjFAPVBmg6YvuRTNaAavsGGDoy9jA2Q9q2uZcNKORvcuaAYFQH5rfhcD21lHr30hsArw427wBtLtOxO/BEr3dqgGkpe3aob4Vq1MDelHT6WQ43O1QdwZo1pOY+GWEmuoNYJVWH9EPjK/7XwqBkJ82YAX80b8w+DFqugCjkTcQZywOr7/cu92MGRCyBj9cF++SqBzE8AY4g6vJIOQXvgJcUihARrQ/Hgi5rnyZ6kWulfFdUMpA14Nwo48l6A3wBpBGBn0F1KkBmvWhZivjPh6Lo6+uvOxnx/0YkJQBEa25+gx19klvQFIGhE131/yv9SSDETvpZ0GJVEDunhoDQjICNfvLG1BlANttZwygb9cakJ1V81xH0zjSyKCmWy0Owq9gxCZi2DwWNZuDmp2oee5zcgVpZDCiy+10QZc0UB8ljQ6G9I7yfTsuDNC0zXX+qQA1W+umAnKzXeeeCrCTjMGIHkjYgF24gyR2Iif1YCl7Z/kSvGTE3+PkXW7awXifqM2dcpXvACviY6muc001qOk0jNhmjNgZA6IfQ802YciewZAMeiLH838nGUu5+8u7EDR9r//C1H2o2e8YsdOVDVHsWHn80KwLI1qKL0yq3PmQnYGaToqPol7o73s8Ho/H4/F4PB6Px+MhDvgXenkKeBIN+EIAAAAASUVORK5CYII=;" parent="1" vertex="1">
          <mxGeometry x="478" y="360" width="60" height="60" as="geometry" />
        </mxCell>
        <mxCell id="kf6Z-MlF4UlDV9ZR81g8-17" value="FE" style="text;html=1;align=center;verticalAlign=middle;whiteSpace=wrap;rounded=0;" parent="1" vertex="1">
          <mxGeometry x="330" y="85" width="60" height="30" as="geometry" />
        </mxCell>
        <mxCell id="kf6Z-MlF4UlDV9ZR81g8-18" value="BFF" style="text;html=1;align=center;verticalAlign=middle;whiteSpace=wrap;rounded=0;" parent="1" vertex="1">
          <mxGeometry x="320" y="170" width="60" height="30" as="geometry" />
        </mxCell>
        <mxCell id="kf6Z-MlF4UlDV9ZR81g8-19" value="Gestione documenti e bot" style="text;html=1;align=center;verticalAlign=middle;whiteSpace=wrap;rounded=0;" parent="1" vertex="1">
          <mxGeometry x="20" y="293" width="60" height="30" as="geometry" />
        </mxCell>
        <mxCell id="kf6Z-MlF4UlDV9ZR81g8-20" value="Bot 1" style="text;html=1;align=center;verticalAlign=middle;whiteSpace=wrap;rounded=0;" parent="1" vertex="1">
          <mxGeometry x="228.5" y="293" width="60" height="30" as="geometry" />
        </mxCell>
        <mxCell id="kf6Z-MlF4UlDV9ZR81g8-21" value="Bot 2" style="text;html=1;align=center;verticalAlign=middle;whiteSpace=wrap;rounded=0;" parent="1" vertex="1">
          <mxGeometry x="420" y="293" width="60" height="30" as="geometry" />
        </mxCell>
        <mxCell id="kf6Z-MlF4UlDV9ZR81g8-22" value="Bot 1" style="text;html=1;align=center;verticalAlign=middle;whiteSpace=wrap;rounded=0;" parent="1" vertex="1">
          <mxGeometry x="226.5" y="366.5" width="60" height="30" as="geometry" />
        </mxCell>
        <mxCell id="kf6Z-MlF4UlDV9ZR81g8-23" value="Bot 2" style="text;html=1;align=center;verticalAlign=middle;whiteSpace=wrap;rounded=0;" parent="1" vertex="1">
          <mxGeometry x="420" y="368" width="60" height="27" as="geometry" />
        </mxCell>
      </root>
    </mxGraphModel>
  </diagram>
</mxfile>
